<?xml version="1.0" standalone="no"?><!DOCTYPE svg PUBLIC "-//W3C//DTD SVG 1.1//EN" "http://www.w3.org/Graphics/SVG/1.1/DTD/svg11.dtd"><svg t="1580028709199" class="icon" viewBox="0 0 1024 1024" version="1.1" xmlns="http://www.w3.org/2000/svg" p-id="11087" xmlns:xlink="http://www.w3.org/1999/xlink" width="200" height="200"><defs><style type="text/css"></style></defs><path d="M724.48 974.08h-128c-15.616 0-28.16-12.544-28.16-28.16v-217.856c0-10.24-8.704-18.944-18.944-18.944h-74.752c-10.24 0-18.944 8.704-18.944 18.944v217.856c0 15.616-12.544 28.16-28.16 28.16h-128c-54.528 0-99.072-41.472-99.072-92.672v-314.88H49.92c-11.52 0-21.76-6.912-26.112-17.408s-2.048-22.784 6.144-30.72L492.032 58.112c11.008-11.008 28.672-11.008 39.68 0l462.08 460.288c8.192 7.936 10.496 20.224 6.144 30.72s-14.592 17.408-26.112 17.408h-150.528v314.88c0.256 51.2-44.288 92.672-98.816 92.672z m-100.096-56.32h99.84c23.296 0 42.752-16.64 42.752-36.352v-343.04c0-15.616 12.544-28.16 28.16-28.16h110.592L512 117.76 118.016 510.208h110.592c15.616 0 28.16 12.544 28.16 28.16v343.04c0 19.712 19.712 36.352 42.752 36.352h99.84v-189.696c0-41.472 33.792-75.264 75.264-75.264h74.752c41.472 0 75.264 33.792 75.264 75.264v189.696z" p-id="11088" fill="#2c2c2c"></path></svg>